# xmcd CD database file
#
# Track frame offsets:
#	150
#	18296
#	31746
#	46949
#	65228
#	81785
#	98524
#	110451
#	122852
#	136601
#	147795
#	169566
#
# Disc length: 2484 seconds
#
# Revision: 0
# Processed by: cddbd v1.5.2PL0 Copyright (c) Steve Scherf et al.
# Submitted via: CDex 1.70beta2
#
DISCID=9109b20c
DTITLE=Bob Childers - Hat Trick
DYEAR=1999
DGENRE=Blues
TTITLE0=More Than Gold
TTITLE1=Just LikeTom Skinner's Blues
TTITLE2=Outlaw Band
TTITLE3=Ragged Red Bandanas
TTITLE4=I Dreamed That I Had Wings
TTITLE5=Luck Of The Draw
TTITLE6=My Daddy
TTITLE7=Never, Never, Never
TTITLE8=She's Close
TTITLE9=What's Done Is Done
TTITLE10=Dust On The Bible
TTITLE11=Desert Flower
EXTD=YEAR: 1999
EXTT0=
EXTT1=
EXTT2=
EXTT3=
EXTT4=
EXTT5=
EXTT6=
EXTT7=
EXTT8=
EXTT9=
EXTT10=
EXTT11=
PLAYORDER=
